<svg width="196" height="28" viewBox="0 0 196 28" fill="none" xmlns="http://www.w3.org/2000/svg">
<path d="M19.24 7.76C18.0933 6.93333 17.1067 6.33333 16.28 5.96C15.4533 5.56 14.4933 5.36 13.4 5.36C11.2133 5.36 9.33333 5.92 7.76 7.04C6.56 7.92 5.66667 9.06667 5.08 10.48C4.49333 11.8933 4.2 13.48 4.2 15.24C4.2 16.92 4.58667 18.4 5.36 19.68C6.13333 20.9333 7.13333 21.8933 8.36 22.56C9.58667 23.2267 10.8667 23.56 12.2 23.56C13.5333 23.56 14.68 23.36 15.64 22.96C16.6267 22.5333 17.4133 21.9867 18 21.32C18.9067 20.1733 19.36 18.6533 19.36 16.76C19.36 16.4933 19.1467 16.3067 18.72 16.2C18.2933 16.0933 17.68 16.04 16.88 16.04L14 16.08C13.2267 16.08 12.6133 15.9333 12.16 15.64C11.7067 15.3467 11.48 14.9733 11.48 14.52C11.48 13.88 11.6933 13.4133 12.12 13.12C12.5467 12.8 13.12 12.64 13.84 12.64C14.6933 12.64 15.84 12.6933 17.28 12.8C18.72 12.9067 19.76 12.96 20.4 12.96C21.3333 12.96 22.08 13.2533 22.64 13.84C23.2267 14.4267 23.52 15.28 23.52 16.4C23.52 17.44 23.2933 18.6533 22.84 20.04C22.3867 21.4267 21.7467 22.6667 20.92 23.76C20.12 24.8267 18.9333 25.64 17.36 26.2C15.8133 26.7333 14.0933 27 12.2 27C10.6267 27 9.10667 26.7467 7.64 26.24C6.17333 25.7333 4.94667 25.0267 3.96 24.12C2.73333 22.9733 1.76 21.6133 1.04 20.04C0.346667 18.44 2.98023e-08 16.8533 2.98023e-08 15.28C2.98023e-08 12.9867 0.533333 10.76 1.6 8.6C2.69333 6.41333 4.16 4.72 6 3.52C6.8 2.98667 7.92 2.54667 9.36 2.2C10.8 1.85333 12.12 1.68 13.32 1.68C15.1867 1.68 16.8267 1.97333 18.24 2.56C19.6533 3.12 20.7333 3.93333 21.48 5C21.8 5.48 21.96 5.90667 21.96 6.28C21.96 6.70667 21.7733 7.10667 21.4 7.48C21.0267 7.85333 20.6533 8.04 20.28 8.04C20.12 8.04 19.9333 8.01333 19.72 7.96C19.5067 7.90667 19.3467 7.84 19.24 7.76ZM33.6572 25.4C33.6572 25.8533 33.4839 26.2533 33.1372 26.6C32.7905 26.9467 32.3639 27.12 31.8572 27.12C31.0572 27.12 30.4705 26.9733 30.0972 26.68C29.7239 26.36 29.5372 25.7867 29.5372 24.96C29.5372 23.9733 29.5105 22.68 29.4572 21.08C29.4039 19.7467 29.3772 18.6267 29.3772 17.72C29.3772 17.2933 29.4039 16.7333 29.4572 16.04C29.5105 15.4 29.5372 14.92 29.5372 14.6C29.4572 14.0933 29.2572 13.68 28.9372 13.36C28.6172 13.0133 28.2039 12.84 27.6972 12.84C27.4572 12.84 27.2572 12.7333 27.0972 12.52C26.9372 12.28 26.8572 12.04 26.8572 11.8C26.8572 11.1867 27.0972 10.72 27.5772 10.4C28.0839 10.08 28.6839 9.92 29.3772 9.92C30.8172 9.92 31.8172 10.7733 32.3772 12.48C33.0705 11.68 33.8572 11.04 34.7372 10.56C35.6439 10.0533 36.5105 9.8 37.3372 9.8C38.3239 9.8 39.2172 10.0667 40.0172 10.6C40.8439 11.1333 41.2572 11.8533 41.2572 12.76C41.2572 13.2667 41.0305 13.7867 40.5772 14.32C40.1505 14.8533 39.7105 15.12 39.2572 15.12C39.0172 15.12 38.8039 15.0667 38.6172 14.96C38.4572 14.8267 38.2572 14.64 38.0172 14.4C37.7505 14.1333 37.5239 13.9467 37.3372 13.84C37.1505 13.7067 36.9372 13.64 36.6972 13.64C36.2705 13.64 35.8705 13.7067 35.4972 13.84C35.1239 13.9733 34.8705 14.1333 34.7372 14.32C34.3105 14.9867 33.9905 15.5867 33.7772 16.12C33.5905 16.6533 33.4972 17.2267 33.4972 17.84C33.4972 18.2933 33.4839 18.6533 33.4572 18.92L33.4172 21.2C33.4172 21.5467 33.4305 21.9333 33.4572 22.36C33.4839 22.7867 33.5105 23.1067 33.5372 23.32C33.6172 24.04 33.6572 24.7333 33.6572 25.4ZM43.3156 18.52C43.3156 17.5067 43.5023 16.4933 43.8756 15.48C44.249 14.44 44.7423 13.4933 45.3556 12.64C45.969 11.7867 46.9423 11.0933 48.2756 10.56C49.609 10 50.7956 9.72 51.8356 9.72C52.9023 9.72 53.9823 9.86667 55.0756 10.16C56.1956 10.4533 56.969 10.9067 57.3956 11.52C58.3823 12.9067 58.8756 14.2667 58.8756 15.6C58.8756 16.32 58.7156 16.9333 58.3956 17.44C58.1023 17.9467 57.6756 18.4933 57.1156 19.08C56.6623 19.56 55.9423 19.88 54.9556 20.04C53.9956 20.2 53.0356 20.28 52.0756 20.28C51.4623 20.28 50.7156 20.2267 49.8356 20.12C48.9556 19.9867 48.1023 19.8267 47.2756 19.64C47.329 20.1733 47.4623 20.6933 47.6756 21.2C47.889 21.7067 48.1423 22.0933 48.4356 22.36C48.969 22.8667 49.5156 23.1867 50.0756 23.32C50.6623 23.4533 51.409 23.52 52.3156 23.52C53.2756 23.52 54.169 23.36 54.9956 23.04C55.6623 22.8 56.209 22.68 56.6356 22.68C57.1423 22.68 57.529 22.84 57.7956 23.16C58.0623 23.4533 58.1956 23.84 58.1956 24.32C58.1956 24.9867 57.809 25.5333 57.0356 25.96C56.2623 26.3867 55.369 26.7067 54.3556 26.92C53.369 27.1067 52.569 27.2 51.9556 27.2C50.7023 27.2 49.489 26.9733 48.3156 26.52C47.1423 26.0667 46.169 25.4267 45.3956 24.6C44.7556 23.8533 44.249 22.96 43.8756 21.92C43.5023 20.8533 43.3156 19.72 43.3156 18.52ZM52.0356 13.12C51.449 13.12 50.8623 13.24 50.2756 13.48C49.689 13.6933 49.209 14 48.8356 14.4C48.3556 14.9067 48.0223 15.32 47.8356 15.64C47.6756 15.9333 47.569 16.3467 47.5156 16.88C48.1823 17.0933 49.569 17.2 51.6756 17.2C52.8223 17.2 53.7023 17.0267 54.3156 16.68C54.9556 16.3333 55.2756 15.88 55.2756 15.32C55.2756 14.76 54.929 14.2533 54.2356 13.8C53.5423 13.3467 52.809 13.12 52.0356 13.12ZM62.3781 18.52C62.3781 17.5067 62.5648 16.4933 62.9381 15.48C63.3115 14.44 63.8048 13.4933 64.4181 12.64C65.0315 11.7867 66.0048 11.0933 67.3381 10.56C68.6715 10 69.8581 9.72 70.8981 9.72C71.9648 9.72 73.0448 9.86667 74.1381 10.16C75.2581 10.4533 76.0315 10.9067 76.4581 11.52C77.4448 12.9067 77.9381 14.2667 77.9381 15.6C77.9381 16.32 77.7781 16.9333 77.4581 17.44C77.1648 17.9467 76.7381 18.4933 76.1781 19.08C75.7248 19.56 75.0048 19.88 74.0181 20.04C73.0581 20.2 72.0981 20.28 71.1381 20.28C70.5248 20.28 69.7781 20.2267 68.8981 20.12C68.0181 19.9867 67.1648 19.8267 66.3381 19.64C66.3915 20.1733 66.5248 20.6933 66.7381 21.2C66.9515 21.7067 67.2048 22.0933 67.4981 22.36C68.0315 22.8667 68.5781 23.1867 69.1381 23.32C69.7248 23.4533 70.4715 23.52 71.3781 23.52C72.3381 23.52 73.2315 23.36 74.0581 23.04C74.7248 22.8 75.2715 22.68 75.6981 22.68C76.2048 22.68 76.5915 22.84 76.8581 23.16C77.1248 23.4533 77.2581 23.84 77.2581 24.32C77.2581 24.9867 76.8715 25.5333 76.0981 25.96C75.3248 26.3867 74.4315 26.7067 73.4181 26.92C72.4315 27.1067 71.6315 27.2 71.0181 27.2C69.7648 27.2 68.5515 26.9733 67.3781 26.52C66.2048 26.0667 65.2315 25.4267 64.4581 24.6C63.8181 23.8533 63.3115 22.96 62.9381 21.92C62.5648 20.8533 62.3781 19.72 62.3781 18.52ZM71.0981 13.12C70.5115 13.12 69.9248 13.24 69.3381 13.48C68.7515 13.6933 68.2715 14 67.8981 14.4C67.4181 14.9067 67.0848 15.32 66.8981 15.64C66.7381 15.9333 66.6315 16.3467 66.5781 16.88C67.2448 17.0933 68.6315 17.2 70.7381 17.2C71.8848 17.2 72.7648 17.0267 73.3781 16.68C74.0181 16.3333 74.3381 15.88 74.3381 15.32C74.3381 14.76 73.9915 14.2533 73.2981 13.8C72.6048 13.3467 71.8715 13.12 71.0981 13.12ZM100.001 23.92C100.134 23.9733 100.347 24.04 100.641 24.12C100.934 24.2 101.147 24.28 101.281 24.36C101.414 24.44 101.481 24.56 101.481 24.72C101.507 25.36 101.267 25.8933 100.761 26.32C100.281 26.72 99.7073 26.92 99.0406 26.92C98.0006 26.92 97.1873 26.64 96.6006 26.08C96.014 25.52 95.5873 24.6667 95.3206 23.52C95.214 23.0667 95.1606 22.44 95.1606 21.64C95.1606 21.1867 95.1873 20.4533 95.2406 19.44C95.294 18.3733 95.3206 17.52 95.3206 16.88C95.3206 15.9467 95.054 15.1333 94.5206 14.44C94.014 13.72 93.294 13.36 92.3606 13.36C91.8006 13.36 91.214 13.5333 90.6006 13.88C89.9873 14.2 89.5606 14.6 89.3206 15.08C88.9206 15.8533 88.6406 16.6933 88.4806 17.6C88.1873 19.2 88.0406 20.8667 88.0406 22.6C88.0406 23.4267 88.054 24.0667 88.0806 24.52C88.0806 24.6267 88.0806 24.84 88.0806 25.16C88.1073 25.4533 88.0806 25.7333 88.0006 26C87.9473 26.24 87.8406 26.4667 87.6806 26.68C87.5473 26.8133 87.334 26.92 87.0406 27C86.774 27.1067 86.5206 27.16 86.2806 27.16C85.9073 27.16 85.4406 27 84.8806 26.68C84.3206 26.36 84.0006 26 83.9206 25.6L83.8806 24.92C83.8806 24.68 83.9073 24.4 83.9606 24.08C84.2806 22.2133 84.4406 20.5867 84.4406 19.2C84.4406 18.5867 84.4273 18.1067 84.4006 17.76L84.3606 15.88C84.3606 15.24 84.2006 14.6267 83.8806 14.04C83.5606 13.4267 83.1873 13.12 82.7606 13.12C82.6273 13.12 82.4406 13.1733 82.2006 13.28C81.9606 13.36 81.7606 13.4 81.6006 13.4C81.334 13.4 81.0406 13.2667 80.7206 13C80.4273 12.7333 80.2806 12.4533 80.2806 12.16C80.2806 11.6 80.4673 11.1467 80.8406 10.8C81.2406 10.48 81.6273 10.2267 82.0006 10.04C82.4006 9.85333 82.854 9.76 83.3606 9.76C83.7873 9.76 84.134 9.8 84.4006 9.88C84.6673 9.96 85.0273 10.1333 85.4806 10.4C85.7206 10.5333 86.0006 10.8267 86.3206 11.28C86.6406 11.7333 86.9073 12.3733 87.1206 13.2C87.814 11.92 88.6673 11.0267 89.6806 10.52C90.7206 9.98667 92.0406 9.72 93.6406 9.72C94.254 9.72 94.9073 9.92 95.6006 10.32C96.3206 10.72 96.934 11.1867 97.4406 11.72C97.9206 12.3067 98.3206 13.04 98.6406 13.92C98.9606 14.7733 99.1206 15.5467 99.1206 16.24C99.1206 16.64 99.094 17.2933 99.0406 18.2C98.9606 18.92 98.9206 19.68 98.9206 20.48C98.9206 22.3467 99.2806 23.4933 100.001 23.92ZM115.018 16.4C116.244 16.4 116.858 17.0933 116.858 18.48C116.858 19.2 116.604 19.72 116.098 20.04C115.618 20.36 115.018 20.52 114.298 20.52C114.084 20.52 113.858 20.5067 113.618 20.48C113.378 20.4533 113.124 20.4267 112.858 20.4C112.058 20.2667 111.338 20.2 110.698 20.2C110.244 20.2 109.564 20.2533 108.658 20.36C107.698 20.4667 106.964 20.52 106.458 20.52C105.738 20.52 105.098 20.3867 104.538 20.12C103.978 19.8267 103.698 19.3467 103.698 18.68C103.698 17.7467 104.044 17.1467 104.738 16.88C105.431 16.5867 106.404 16.44 107.658 16.44L108.978 16.48C109.618 16.5333 110.111 16.56 110.458 16.56L113.378 16.48L115.018 16.4ZM118.753 3.68C118.753 2.53333 119.593 1.96 121.273 1.96C121.993 1.96 123.366 1.98667 125.393 2.04C127.633 2.14667 129.326 2.2 130.473 2.2C131.406 2.2 132.539 2.14667 133.873 2.04C134.779 1.98667 135.353 1.96 135.593 1.96C137.059 2.01333 138.299 2.28 139.313 2.76C139.606 2.89333 139.846 3.05333 140.033 3.24C140.219 3.42667 140.313 3.73333 140.313 4.16C140.313 4.74667 140.126 5.25333 139.753 5.68C139.379 6.08 138.926 6.28 138.393 6.28C137.806 6.28 136.953 6.2 135.833 6.04C134.846 5.85333 133.979 5.76 133.233 5.76C132.513 5.76 131.966 5.77333 131.593 5.8C131.513 6.68 131.473 8.78667 131.473 12.12C131.473 16.0933 131.593 20.12 131.833 24.2L131.913 25.36C131.913 26.4533 131.286 27 130.033 27C129.046 27 128.379 26.7733 128.033 26.32C127.686 25.84 127.513 25.12 127.513 24.16C127.513 22.2667 127.459 19.9067 127.353 17.08C127.246 14.7333 127.193 13.0667 127.193 12.08C127.193 11.4133 127.273 9.37333 127.433 5.96L122.753 6C121.259 6 120.219 5.86667 119.632 5.6C119.046 5.30667 118.753 4.66667 118.753 3.68ZM138.589 18.52C138.589 17.5067 138.776 16.4933 139.149 15.48C139.522 14.44 140.016 13.4933 140.629 12.64C141.242 11.7867 142.216 11.0933 143.549 10.56C144.882 10 146.069 9.72 147.109 9.72C148.176 9.72 149.256 9.86667 150.349 10.16C151.469 10.4533 152.242 10.9067 152.669 11.52C153.656 12.9067 154.149 14.2667 154.149 15.6C154.149 16.32 153.989 16.9333 153.669 17.44C153.376 17.9467 152.949 18.4933 152.389 19.08C151.936 19.56 151.216 19.88 150.229 20.04C149.269 20.2 148.309 20.28 147.349 20.28C146.736 20.28 145.989 20.2267 145.109 20.12C144.229 19.9867 143.376 19.8267 142.549 19.64C142.602 20.1733 142.736 20.6933 142.949 21.2C143.162 21.7067 143.416 22.0933 143.709 22.36C144.242 22.8667 144.789 23.1867 145.349 23.32C145.936 23.4533 146.682 23.52 147.589 23.52C148.549 23.52 149.442 23.36 150.269 23.04C150.936 22.8 151.482 22.68 151.909 22.68C152.416 22.68 152.802 22.84 153.069 23.16C153.336 23.4533 153.469 23.84 153.469 24.32C153.469 24.9867 153.082 25.5333 152.309 25.96C151.536 26.3867 150.642 26.7067 149.629 26.92C148.642 27.1067 147.842 27.2 147.229 27.2C145.976 27.2 144.762 26.9733 143.589 26.52C142.416 26.0667 141.442 25.4267 140.669 24.6C140.029 23.8533 139.522 22.96 139.149 21.92C138.776 20.8533 138.589 19.72 138.589 18.52ZM147.309 13.12C146.722 13.12 146.136 13.24 145.549 13.48C144.962 13.6933 144.482 14 144.109 14.4C143.629 14.9067 143.296 15.32 143.109 15.64C142.949 15.9333 142.842 16.3467 142.789 16.88C143.456 17.0933 144.842 17.2 146.949 17.2C148.096 17.2 148.976 17.0267 149.589 16.68C150.229 16.3333 150.549 15.88 150.549 15.32C150.549 14.76 150.202 14.2533 149.509 13.8C148.816 13.3467 148.082 13.12 147.309 13.12ZM172.172 13.64C172.172 14.8133 171.572 15.4 170.372 15.4C169.972 15.4 169.638 15.3067 169.372 15.12C169.105 14.9333 168.812 14.6533 168.492 14.28C167.692 13.4 166.998 12.96 166.412 12.96C165.638 12.96 164.878 13.1867 164.132 13.64C163.412 14.0933 162.825 14.7333 162.372 15.56C161.918 16.3867 161.692 17.3067 161.692 18.32C161.692 19.44 161.905 20.3733 162.332 21.12C162.785 21.8667 163.478 22.5067 164.412 23.04C164.758 23.2267 165.158 23.3733 165.612 23.48C166.092 23.5867 166.505 23.64 166.852 23.64C167.625 23.64 168.598 23.3333 169.772 22.72C170.198 22.5067 170.558 22.3467 170.852 22.24C171.145 22.1333 171.452 22.08 171.772 22.08C172.065 22.08 172.398 22.2133 172.772 22.48C173.145 22.7467 173.332 23.08 173.332 23.48C173.332 24.28 172.958 24.96 172.212 25.52C171.465 26.0533 170.545 26.4667 169.452 26.76C168.385 27.0267 167.358 27.16 166.372 27.16C164.798 27.16 163.332 26.8 161.972 26.08C160.638 25.36 159.572 24.3733 158.772 23.12C157.972 21.84 157.572 20.4 157.572 18.8C157.572 17.0933 157.958 15.5333 158.732 14.12C159.505 12.7067 160.545 11.6 161.852 10.8C163.158 10 164.585 9.6 166.132 9.6C167.012 9.6 167.918 9.76 168.852 10.08C169.785 10.4 170.572 10.8667 171.212 11.48C171.852 12.0933 172.172 12.8133 172.172 13.64ZM181.562 1.64C181.562 2.33333 181.548 3.14667 181.522 4.08C181.495 4.98667 181.468 5.68 181.442 6.16C181.362 7.52 181.322 8.88 181.322 10.24C181.322 11.2533 181.362 12.3067 181.442 13.4C182.268 12.2 183.162 11.32 184.122 10.76C185.082 10.2 186.242 9.92 187.602 9.92C188.588 9.92 189.508 10.36 190.362 11.24C191.215 12.12 191.762 13.1467 192.002 14.32C192.082 15.36 192.122 16.6267 192.122 18.12C192.122 19.08 192.175 20.3333 192.282 21.88C192.335 22.4667 192.482 23.0133 192.722 23.52C192.988 24.0267 193.362 24.28 193.842 24.28C194.082 24.28 194.268 24.2667 194.402 24.24C194.562 24.2133 194.708 24.2 194.842 24.2C195.215 24.2 195.468 24.2933 195.602 24.48C195.762 24.6667 195.842 24.9333 195.842 25.28C195.842 25.92 195.522 26.4 194.882 26.72C194.242 27.04 193.655 27.2 193.122 27.2C191.202 27.2 189.882 26.4 189.162 24.8C188.762 23.8933 188.508 22.72 188.402 21.28C188.295 19.8133 188.242 18.1067 188.242 16.16C188.242 14.24 187.588 13.28 186.282 13.28C185.562 13.28 184.828 13.6667 184.082 14.44C183.362 15.1867 182.762 16.1867 182.282 17.44C181.802 18.6667 181.562 19.9467 181.562 21.28L181.602 25.44C181.602 26.0267 181.375 26.4667 180.922 26.76C180.468 27.0267 180.042 27.16 179.642 27.16C179.055 27.16 178.522 26.9867 178.042 26.64C177.562 26.2667 177.322 25.8533 177.322 25.4C177.508 23.4 177.602 20.0533 177.602 15.36C177.602 14.5067 177.535 11.3467 177.402 5.88L177.282 2.2C177.282 1.61333 177.548 1.10667 178.082 0.679998C178.615 0.226666 179.215 -4.76837e-07 179.882 -4.76837e-07C180.468 -4.76837e-07 180.895 0.133333 181.162 0.399999C181.428 0.666666 181.562 1.08 181.562 1.64Z" fill="#37CD00"/>
</svg>
